<svg xmlns="http://www.w3.org/2000/svg" width="199.947" height="110.383" viewBox="0 0 199.947 110.383">
  <g id="Group_486" data-name="Group 486" transform="translate(-796.564 -2113.585)">
    <path id="Path_8491" data-name="Path 8491" d="M796.564,2196.72c2.772-7.874,7.352-14.036,15.574-16.972a5.808,5.808,0,0,0,2.54-2.746,33.678,33.678,0,0,1,22.11-17.319,5.406,5.406,0,0,0,3.369-3.273c5.089-24.279,18.527-38.615,40.5-42.206,20.41-3.336,40.582,7.022,50.284,25.851.071.137.246.22-.407-.338,7.917-1.406,15.17-3.726,22.444-3.795,23.908-.23,43.41,19.7,43.533,43.6a43.862,43.862,0,0,1-43.02,44.188c-16.445.258-32.9.049-49.63.049v-42.108q9.858,10.287,19.744,20.606l1.943-1.317c-.649-8.255,3.1-16.918-5.7-24.132-8.2-6.715-15.144-14.95-23.051-22.928-2.858,2.767-5.46,5.242-8.015,7.766-3.673,3.627-6.929,7.812-11.044,10.833-9.94,7.3-12.658,16.795-9.648,28.217,6.268-6.565,12.829-13.436,19.389-20.308l1.577,1.164V2223.8h-5.15c-19.819,0-39.652-.437-59.455.148-13.987.412-23.411-4.769-27.886-18.226Z" fill="#9dd1f1" fill-rule="evenodd"/>
  </g>
</svg>
