<svg xmlns="http://www.w3.org/2000/svg" width="30.274" height="23.335" viewBox="0 0 30.274 23.335">
  <g id="Group_452" data-name="Group 452" transform="translate(-274.078 -2015.273)">
    <path id="Path_8461" data-name="Path 8461" d="M281.142,2023.846a.284.284,0,0,0-.275.2l-5.78,13.612v.477c0,.348-.025.475.285.475h22.585a1.274,1.274,0,0,0,1.236-.863l5.159-13.423v-.476Z" fill="#9dd1f1"/>
    <path id="Path_8462" data-name="Path 8462" d="M280.5,2022.894h20.823v-2.986a1.342,1.342,0,0,0-1.379-1.3H287.457l-2.523-3.334h-9.478a1.343,1.343,0,0,0-1.378,1.3v19.9l5.188-12.722A1.271,1.271,0,0,1,280.5,2022.894Z" fill="#2e99bd"/>
  </g>
</svg>
